<svg width="66" height="66" viewBox="0 0 66 66" fill="none" xmlns="http://www.w3.org/2000/svg">
<path d="M38.8207 52.7392V59.2363H26.7522V27.1923H32.058V20.4286H20.0174V39.2277H6.75471V27.1923H13.2626V20.4286H6.26911C4.60708 20.4307 3.01373 21.0916 1.8385 22.2663C0.663269 23.441 0.0021065 25.0337 0 26.695V39.7409C0.0021065 41.4022 0.663269 42.9949 1.8385 44.1696C3.01373 45.3443 4.60708 46.0052 6.26911 46.0073H20.0174V59.7456C20.0226 61.4041 20.6846 62.9931 21.8587 64.1651C23.0327 65.3372 24.6232 65.9969 26.2825 66H39.3023C40.9643 65.9979 42.5577 65.337 43.7329 64.1623C44.9081 62.9876 45.5693 61.395 45.5714 59.7337V52.7392H38.8207Z" fill="#00b5ef"/>
<path d="M59.7305 19.9997H45.985V6.26856C45.9829 4.60668 45.3217 3.01347 44.1463 1.83834C42.971 0.663218 41.3775 0.00210631 39.7154 0H26.6944C25.0329 0.00315883 23.4404 0.664734 22.266 1.83975C21.0915 3.01476 20.4308 4.60737 20.4287 6.26856V13.2575H27.1641V6.7382H39.2218V38.8054H33.9314V45.5714H45.985V26.7498H59.2488V38.8054H52.7363V45.5714H59.7305C61.3927 45.5693 62.9861 44.9082 64.1615 43.7331C65.3368 42.558 65.998 40.9647 66.0001 39.3029V26.2682C65.998 24.6064 65.3368 23.0132 64.1615 21.838C62.9861 20.6629 61.3927 20.0018 59.7305 19.9997Z" fill="#00b5ef"/>
</svg>
